<svg width="20" height="21" viewBox="0 0 20 21" fill="none" xmlns="http://www.w3.org/2000/svg">
<g id="Dumpling">
<path id="Vector" d="M8.5471 4.33467C9.55975 5.04554 10.9105 3.97835 11.2469 2.91115C11.4751 2.1896 11.6205 1.38608 11.5377 0.555847C11.4549 0.611078 11.372 0.66809 11.2892 0.730446C10.3611 1.44131 9.36195 1.45735 7.56151 1.22039C7.56151 1.22039 7.23692 1.14913 6.85486 1.2774C7.15747 2.46218 7.55475 3.58639 8.5471 4.33467Z" fill="url(#paint0_linear_142_517)"/>
<path id="Vector_2" d="M7.02733 5.22373C7.45335 4.17436 6.80248 3.00027 6.08061 1.90991C6.05864 1.94554 6.03497 1.98118 6.01468 2.02215C5.46694 3.04481 5.62078 3.94987 4.52361 4.66074C3.71046 5.1881 2.74515 5.35735 2.14331 6.03081C3.83387 7.26013 6.23953 7.71444 7.02733 5.22373Z" fill="url(#paint1_linear_142_517)"/>
<path id="Vector_3" d="M2.30219 7.3349C2.07396 7.2868 1.85926 7.23691 1.65301 7.16565C1.68175 7.946 2.51858 9.3232 1.75276 10.1303C1.24221 10.6683 0.579511 11.2242 0.236328 11.7587H2.80766C5.50917 11.046 3.82031 8.22393 2.30219 7.3349Z" fill="url(#paint2_linear_142_517)"/>
<path id="Vector_4" d="M3.98938 14.8284C3.98938 13.3034 1.51102 13.8682 0.0588379 12.8295C0.0723623 12.8722 0.0875773 12.9168 0.107864 12.9613C0.572767 13.984 2.01143 14.6182 2.21768 16.8738C2.42392 19.1293 2.40533 18.2705 2.40195 18.3953C3.27596 17.5882 3.98938 15.746 3.98938 14.8284Z" fill="url(#paint3_linear_142_517)"/>
<path id="Vector_5" d="M19.9398 2.82209C19.644 2.15576 19.4749 1.35403 18.0836 1.30949C17.9906 1.30593 17.8959 1.30236 17.7979 1.29702C17.3769 1.27564 16.9137 1.23466 16.4539 1.1723C16.4556 2.56553 16.038 3.89284 14.7921 4.15474C12.7431 4.69457 12.4439 2.16467 12.6383 0.0570068C12.2816 0.124709 11.9114 0.302871 11.5378 0.55408C11.6206 1.38253 11.4752 2.18605 11.247 2.90939C10.9089 3.97658 9.5598 5.04377 8.54716 4.3329C7.5548 3.58462 7.15752 2.46042 6.8566 1.27564C6.59626 1.36294 6.30886 1.54644 6.08233 1.90811C6.8025 2.99669 7.45506 4.17256 7.02904 5.22193C6.24124 7.71264 3.83558 7.25833 2.14671 6.02901C1.9354 6.26418 1.76972 6.55993 1.67167 6.95724C1.65476 7.02316 1.65307 7.09798 1.65645 7.17816C1.8627 7.24942 2.0774 7.28684 2.30563 7.33494C3.82544 8.22397 5.51261 11.0461 2.81279 11.7587H0.241459C0.0419735 11.9369 -0.0476259 12.4518 0.0639507 12.8063C1.51614 13.845 3.99449 13.2927 3.99449 14.816C3.99449 15.7335 3.2591 17.4759 2.38508 18.283C2.36987 18.7961 2.7215 19.7992 3.27601 20.298C3.50761 20.5065 3.69864 20.6686 3.85587 20.7951C3.99111 20.9038 4.14495 20.9679 4.30386 20.9911C4.57266 21.0285 4.85329 20.9448 5.06292 20.7363C5.55487 20.2517 6.09247 19.6157 7.08652 18.9796C7.7695 18.5431 8.3257 17.7663 8.69762 17.2978C8.29865 17.0644 7.663 16.6421 7.36039 16.3036C5.47204 14.1995 5.52275 11.2028 6.97156 8.8511C8.07042 7.0677 10.0653 5.4001 12.1108 5.08475C13.9755 4.79613 16.1327 6.06821 17.502 7.50598C17.8976 7.10511 18.2205 6.72741 18.4234 6.38177C18.5468 6.17154 18.6685 5.97022 18.7852 5.77424C19.5882 4.42733 20.1985 3.40468 19.9398 2.82209Z" fill="url(#paint4_linear_142_517)"/>
<path id="Vector_6" d="M12.1075 5.08296C10.0619 5.40009 8.06706 7.0659 6.9682 8.84931C5.51939 11.2011 5.46868 14.1977 7.35703 16.3018C7.65964 16.6386 8.30205 17.0697 8.70102 17.3031C9.50234 16.8577 9.78466 16.5637 12.3645 14.2726C14.2443 12.605 14.7583 11.5449 15.4954 10.6487C16.7751 9.09161 17.147 7.84269 17.4987 7.50418C16.1293 6.06641 13.9722 4.79433 12.1075 5.08296Z" fill="url(#paint5_linear_142_517)"/>
<path id="Vector_7" d="M15.0676 4.33468C17.7167 4.06743 17.3228 2.66886 17.3211 1.27563C16.2848 1.13488 14.3965 0.776774 13.9062 0.374127C13.5208 0.0569984 13.0897 -0.0285195 12.64 0.0569984C12.4439 2.16644 12.4185 4.60192 15.0676 4.33468Z" fill="url(#paint6_linear_142_517)"/>
<path id="Vector_8" opacity="0.2" d="M12.8547 0.562993C13.1167 0.562993 13.3297 0.637821 13.5258 0.798167C14.148 1.30771 16.2121 1.65513 17.0709 1.77984C17.0794 1.78162 17.0878 1.78162 17.0963 1.78341C17.3228 1.80479 17.5494 1.82082 17.7725 1.83151C17.8723 1.83685 17.972 1.84042 18.0667 1.84398C18.9914 1.87427 19.1469 2.25019 19.3819 2.82031C19.414 2.89692 19.4445 2.97353 19.4783 3.04836C19.6203 3.36727 18.8866 4.59303 18.3524 5.48562L18.3422 5.50344C18.2273 5.69585 18.1089 5.89361 17.9889 6.09672C17.8283 6.36931 17.8283 6.36931 17.5139 6.68822L17.475 6.72741C17.1521 7.01603 16.8681 7.51133 16.5114 8.13489C16.153 8.76024 15.7083 9.53881 15.1048 10.3067C14.9273 10.533 14.7633 10.761 14.5909 11.0033C14.0465 11.7658 13.4278 12.6299 12.0398 13.8628C11.6781 14.1835 11.3619 14.465 11.083 14.7144C9.47527 16.1469 9.13209 16.4515 8.54039 16.7882C8.45079 16.8185 8.36796 16.8738 8.30371 16.9557C8.25807 17.0145 8.20904 17.0769 8.15664 17.1428C7.81345 17.5828 7.34517 18.185 6.81941 18.5218C5.9606 19.0723 5.41963 19.6264 4.98515 20.07C4.89217 20.1662 4.80088 20.2571 4.71297 20.3444C4.63521 20.421 4.53209 20.4637 4.42389 20.4637C4.40529 20.4637 4.38501 20.4619 4.36641 20.4602C4.35965 20.4602 4.35458 20.4584 4.34782 20.4584C4.2785 20.4459 4.21426 20.4156 4.15847 20.3711C3.99618 20.2392 3.80684 20.0789 3.5989 19.8918C3.2219 19.5533 2.92099 18.8229 2.88887 18.3792C2.88717 18.3543 2.88379 18.3276 2.87703 18.3026C2.87027 18.2723 2.83139 18.055 2.71981 16.8239C2.56597 15.1349 1.76465 14.2245 1.17802 13.5599C0.912606 13.2571 0.68269 12.9969 0.56097 12.7315C0.552518 12.7137 0.545755 12.6941 0.535612 12.6638C0.535612 12.662 0.533922 12.6584 0.533922 12.6567C0.535612 12.6495 0.533921 12.6442 0.532231 12.6388C0.479824 12.4696 0.520397 12.2273 0.562661 12.1525C0.5914 12.124 0.616759 12.0919 0.640427 12.058C0.850055 11.732 1.22536 11.3596 1.59052 11.0015C1.7545 10.8412 1.92187 10.6737 2.07909 10.5098C2.82462 9.7241 2.50173 8.65513 2.26674 7.873C2.20926 7.68058 2.15347 7.49529 2.12135 7.34207C2.1315 7.30109 2.13488 7.26012 2.13488 7.21558C2.13488 7.16925 2.12981 7.12471 2.11797 7.08017C2.11628 7.07305 2.11628 7.06414 2.11459 7.05701C2.2025 6.73097 2.31577 6.5154 2.40368 6.38356C2.73502 6.06999 3.17288 5.87936 3.6344 5.67625C3.99449 5.51947 4.3681 5.35556 4.72988 5.12039C5.62249 4.54136 5.86593 3.84296 6.10092 3.16773C6.19728 2.88801 6.29872 2.59939 6.45087 2.31077C6.46946 2.28582 6.48637 2.26088 6.50496 2.23237C6.59118 2.09341 6.68247 2.03996 6.86505 1.94197C6.93436 1.90456 7.01213 1.8618 7.09328 1.81013C7.19302 1.76915 7.27924 1.76024 7.33672 1.76024C7.3756 1.76024 7.40434 1.76381 7.41617 1.76737C7.44322 1.77628 7.45167 1.77628 7.4838 1.78162C8.18369 1.87427 8.69254 1.91525 9.13547 1.91525C10.1464 1.91525 10.87 1.69076 11.5563 1.16518C11.602 1.12955 11.6409 1.09748 11.6764 1.06541C11.7085 1.0369 11.7271 1.02087 11.7474 1.0084C12.1176 0.758972 12.361 0.63604 12.5893 0.587936C12.5927 0.587936 12.5943 0.586154 12.5977 0.586154C12.6856 0.57012 12.7735 0.562993 12.8547 0.562993ZM12.8124 0.028506C12.6992 0.028506 12.5876 0.0391957 12.4185 0.0587936V0H12.4608C12.1227 0.178162 11.8218 0.27437 11.4498 0.527361C11.367 0.584373 11.3281 0.653856 11.2453 0.717994C10.6333 1.18656 10.0044 1.37363 9.12871 1.37363C8.67395 1.37363 8.15833 1.32909 7.54296 1.24892C7.54296 1.24892 7.46351 1.27208 7.33334 1.27208C7.20823 1.27208 7.03918 1.2507 6.85153 1.42886H6.85322C6.59287 1.60702 6.30717 1.62484 6.08063 1.98829C6.05866 2.02392 6.03499 2.02392 6.0147 2.06312C5.46696 3.08577 5.51768 3.97124 4.42051 4.68389C3.60735 5.2059 2.6133 5.35556 1.93708 6.02902V6.0308C1.76803 6.26597 1.66321 6.6312 1.56516 7.02851C1.54995 7.08908 1.62433 7.30466 1.62602 7.30466H1.58714C1.648 8.01731 2.46961 9.38381 1.719 10.1749C1.20845 10.7129 0.562661 11.2456 0.219478 11.7801C0.0199927 11.9583 -0.0611539 12.4625 0.0504227 12.817C0.0504227 12.8348 0.0554943 12.8259 0.0588755 12.8366C0.0723999 12.8794 0.0876149 12.9186 0.107902 12.9631C0.572804 13.9857 2.01316 14.6182 2.21771 16.8755C2.31577 17.9552 2.3631 18.3204 2.38508 18.422C2.42565 18.96 2.76207 19.8402 3.27262 20.298C3.50423 20.5065 3.69526 20.6686 3.85248 20.7951C3.98773 20.9038 4.14157 20.9679 4.30048 20.9911C4.34274 20.9964 4.38332 21 4.42558 21C4.65381 21 4.88203 20.9127 5.05954 20.7363C5.55149 20.2517 6.08909 19.6157 7.08313 18.9796C7.76443 18.5431 8.32062 17.7681 8.69254 17.2996C8.69592 17.3013 8.6993 17.3031 8.70099 17.3049C9.50232 16.8595 9.78464 16.5655 12.3644 14.2744C14.2443 12.605 14.7769 11.5627 15.4953 10.6488C16.7007 9.11657 17.2653 7.60219 17.8148 7.1265C18.2104 6.72563 18.2171 6.72563 18.4217 6.38C18.5451 6.16976 18.6668 5.96844 18.7835 5.77246C19.5882 4.42734 20.1985 3.40468 19.9398 2.82387C19.644 2.15755 19.4749 1.35582 18.0836 1.31128C17.9906 1.30771 17.8959 1.30415 17.7979 1.2988C17.5882 1.28811 17.3668 1.27208 17.1402 1.25248C16.0786 1.09748 14.2798 0.75719 13.8166 0.377704C13.5225 0.135403 13.1759 0.028506 12.8124 0.028506ZM1.51444 7.16747V7.21558H1.58714C1.58545 7.2031 1.58545 7.19063 1.58545 7.17816H1.51444V7.16747Z" fill="#424242"/>
</g>
<defs>
<linearGradient id="paint0_linear_142_517" x1="9.17464" y1="0.817211" x2="10.0458" y2="4.30059" gradientUnits="userSpaceOnUse">
<stop stop-color="#FBEBDA"/>
<stop offset="0.9147" stop-color="#D5BFA8"/>
<stop offset="1" stop-color="#D1BBA3"/>
</linearGradient>
<linearGradient id="paint1_linear_142_517" x1="3.88662" y1="3.73123" x2="7.21795" y2="6.89228" gradientUnits="userSpaceOnUse">
<stop stop-color="#FBEBDA"/>
<stop offset="0.9147" stop-color="#D5BFA8"/>
<stop offset="1" stop-color="#D1BBA3"/>
</linearGradient>
<linearGradient id="paint2_linear_142_517" x1="0.189121" y1="9.23128" x2="4.89376" y2="10.4684" gradientUnits="userSpaceOnUse">
<stop stop-color="#FBEBDA"/>
<stop offset="0.9147" stop-color="#D5BFA8"/>
<stop offset="1" stop-color="#D1BBA3"/>
</linearGradient>
<linearGradient id="paint3_linear_142_517" x1="1.31819" y1="15.6163" x2="6.53261" y2="14.2179" gradientUnits="userSpaceOnUse">
<stop stop-color="#FBEBDA"/>
<stop offset="0.0759" stop-color="#F4E4D2"/>
<stop offset="0.4702" stop-color="#D5C3AF"/>
<stop offset="0.7923" stop-color="#C1AE99"/>
<stop offset="1" stop-color="#BAA791"/>
</linearGradient>
<linearGradient id="paint4_linear_142_517" x1="3.00822" y1="4.3117" x2="16.4084" y2="14.0842" gradientUnits="userSpaceOnUse">
<stop stop-color="#FBEFE4"/>
<stop offset="0.3173" stop-color="#F8EBDF"/>
<stop offset="0.6839" stop-color="#EEDFD1"/>
<stop offset="0.907" stop-color="#E6D5C5"/>
</linearGradient>
<linearGradient id="paint5_linear_142_517" x1="8.12182" y1="7.36581" x2="14.7193" y2="13.6261" gradientUnits="userSpaceOnUse">
<stop stop-color="#F2E3D2"/>
<stop offset="0.2302" stop-color="#EEDFCE"/>
<stop offset="0.4796" stop-color="#E3D3C1"/>
<stop offset="0.738" stop-color="#CFBEAB"/>
<stop offset="1" stop-color="#B5A28D"/>
</linearGradient>
<linearGradient id="paint6_linear_142_517" x1="13.0673" y1="3.65587" x2="16.4934" y2="0.404816" gradientUnits="userSpaceOnUse">
<stop stop-color="#D1BBA3"/>
<stop offset="0.0853" stop-color="#D5BFA8"/>
<stop offset="1" stop-color="#FBEBDA"/>
</linearGradient>
</defs>
</svg>
